<svg xmlns="http://www.w3.org/2000/svg" height="48" viewBox="0 96 960 960" width="48"><path fill="#603" d="M242 945q-14 0-24.5-8T207 916.172V831q-29-17-41.5-47.5T153 720V317q0-77.662 77-112.831T481 169q168 0 247 36.112Q807 241.225 807 317v403q0 33-12.5 63.5T753 831v85.172Q753 929 742.5 937t-24.5 8h-23.491q-13.959 0-24.734-8Q659 929 659 916v-53H301v53q0 13-10.7 21t-25.3 8h-23Zm-24-423h524V354H218v168Zm107.235 228Q349 750 366 732.765q17-17.236 17-41Q383 668 365.765 651q-17.236-17-41-17Q301 634 284 651.235q-17 17.236-17 41Q267 716 284.235 733q17.236 17 41 17Zm310 0Q659 750 676 732.765q17-17.236 17-41Q693 668 675.765 651q-17.236-17-41-17Q611 634 594 651.235q-17 17.236-17 41Q577 716 594.235 733q17.236 17 41 17Z"/></svg>