<svg xmlns="http://www.w3.org/2000/svg" height="48" viewBox="0 96 960 960" width="48"><path fill="#603" d="M334 627h40v-84h46q16.7 0 28.85-11.775Q461 519.45 461 503v-45q0-16.7-12.15-28.85Q436.7 417 420 417h-86v210Zm40-124v-45h46v45h-46Zm130 124h84.526Q605 627 617.5 615.5T630 587V458q0-16.7-12.638-28.85Q604.725 417 589 417h-85v210Zm40-40V458h45v129h-45Zm132 40h40v-84h46v-40h-46v-45h46v-41h-86v210ZM265 871q-29.363 0-51.181-22.138Q192 826.725 192 798V234q0-28.725 21.819-50.862Q235.637 161 265 161h564q28.725 0 50.862 22.138Q902 205.275 902 234v564q0 28.725-22.138 50.862Q857.725 871 829 871H265Zm-133 133q-29.363 0-51.181-22.138Q59 959.725 59 931V294h73v637h637v73H132Z"/></svg>