<?xml version="1.0" encoding="UTF-8"?>
<svg version="1.1" xmlns="http://www.w3.org/2000/svg" width="512" height="512">
<path d="M0 0 C168.96 0 337.92 0 512 0 C512 168.96 512 337.92 512 512 C343.04 512 174.08 512 0 512 C0 343.04 0 174.08 0 0 Z " fill="#FEFEFE" transform="translate(0,0)"/>
<path d="M0 0 C168.96 0 337.92 0 512 0 C512 114.51 512 229.02 512 347 C499.63631848 343.62808686 499.63631848 343.62808686 494.01953125 341.56640625 C493.0753257 341.22245316 493.0753257 341.22245316 492.11204529 340.87155151 C490.7386903 340.37088848 489.36603371 339.86830626 487.99401855 339.36398315 C484.04265626 337.9122649 480.08528522 336.47703946 476.12890625 335.0390625 C475.25861786 334.72233078 474.38832947 334.40559906 473.4916687 334.07926941 C461.76254562 329.81489078 450.00480461 325.63042735 438.25 321.4375 C435.85902946 320.58412183 433.4680791 319.73068713 431.07714844 318.87719727 C421.23251497 315.36327867 411.38724204 311.85115419 401.54150391 308.34033203 C394.21485999 305.72775454 386.88857909 303.1141609 379.5625 300.5 C377.80305054 299.87233734 377.80305054 299.87233734 376.00805664 299.23199463 C360.39402166 293.66064035 344.79245008 288.05729669 329.23266602 282.3359375 C328.04729248 281.90152344 326.86191895 281.46710938 325.640625 281.01953125 C324.63547852 280.64932861 323.63033203 280.27912598 322.59472656 279.89770508 C320.40189241 279.13904388 318.25181599 278.54388412 316 278 C315.82476807 278.61379013 315.64953613 279.22758026 315.46899414 279.85997009 C313.73366061 285.80708496 311.72700967 291.56234852 309.4375 297.31640625 C309.09416626 298.18929794 308.75083252 299.06218964 308.39709473 299.96153259 C307.65602868 301.8445037 306.91317734 303.72677299 306.16870117 305.60839844 C304.13559019 310.74745062 302.11589966 315.89178351 300.09375 321.03515625 C299.67315308 322.10379913 299.25255615 323.17244202 298.81921387 324.27346802 C294.73654755 334.65230498 290.70392388 345.05027251 286.67944336 355.45178223 C278.17510796 377.43085068 269.61153608 399.38631224 261.00463867 421.32540894 C259.1020151 426.17812306 257.20777533 431.03393728 255.32580566 435.8946991 C254.53189722 437.94496911 253.73602147 439.99446333 252.93945312 442.04370117 C252.01205865 444.43155318 251.08857459 446.82092946 250.16992188 449.2121582 C249.77353516 450.23011475 249.37714844 451.24807129 248.96875 452.296875 C248.63294922 453.16666992 248.29714844 454.03646484 247.95117188 454.93261719 C247 457 247 457 245 459 C242.01929181 447.41499413 239.36802812 435.78139157 236.859375 424.0859375 C236.45984779 422.23334783 236.06005406 420.38081563 235.66001892 418.52833557 C234.80243203 414.55506498 233.94631915 410.58148098 233.09140015 406.6076355 C231.01932121 396.97712616 228.93907646 387.34837937 226.85899925 377.71959496 C226.36988931 375.45540408 225.88086758 373.19119415 225.39193153 370.92696571 C219.46751098 343.49328916 213.48601906 316.0720947 207.49861145 288.65210724 C206.68554636 284.92855301 205.87260354 281.20497211 205.05969238 277.48138428 C202.04091554 263.65401132 199.02109232 249.82686724 196 236 C199.69080427 234.76973191 200.75682182 235.37147641 204.36547852 236.66796875 C205.47242065 237.0606041 206.57936279 237.45323944 207.71984863 237.85777283 C208.92733765 238.29658279 210.13482666 238.73539276 211.37890625 239.1875 C212.65063296 239.64232753 213.92265276 240.09633627 215.19494629 240.54957581 C218.61314812 241.76978287 222.02725056 243.00109863 225.4406929 244.23454666 C228.97369265 245.50909535 232.51030027 246.77354741 236.04663086 248.03881836 C241.70996371 250.06632331 247.37129174 252.09932546 253.03125 254.13623047 C260.01538674 256.64915986 267.00583225 259.14401917 274 261.62890625 C275.91334168 262.30921217 277.82667219 262.9895495 279.73999023 263.66992188 C283.67303752 265.06844389 283.67303752 265.06844389 287.60623169 266.46655273 C289.97899169 267.31061407 292.35093563 268.15692948 294.72265625 269.00390625 C295.37745972 269.23638565 296.03226318 269.46886505 296.70690918 269.70838928 C301.08678677 271.27548222 305.43107931 272.92690409 309.77171326 274.59971619 C310.93904716 275.04938216 312.10638105 275.49904814 313.30908871 275.96234035 C314.19708943 276.30476804 315.08509016 276.64719572 316 277 C311.95651925 258.37331398 307.91291631 239.74665449 303.86918545 221.12002277 C301.98964144 212.46226956 300.11013306 203.80450861 298.23071289 195.14672852 C297.68501376 192.63292432 297.13931365 190.11912035 296.59361339 187.6053164 C296.23000017 185.93029209 295.8663923 184.25526663 295.50278974 182.58024001 C293.50360463 173.37049953 291.50399735 164.16085111 289.50326538 154.95144653 C288.77802872 151.61298196 288.05282407 148.27451044 287.32763672 144.93603516 C287.14912823 144.11428684 286.97061975 143.29253853 286.78670192 142.44588876 C284.41462279 131.52538489 282.04774282 120.60376822 279.68558025 109.68111515 C278.45144647 103.9747043 277.21555752 98.26867404 275.97917825 92.56274933 C274.98608638 87.97888884 273.99530498 83.39453706 273.00625658 78.80980253 C272.40246904 76.01365047 271.7964619 73.21798308 271.18980098 70.42245317 C270.77640741 68.514221 270.36574221 66.60539842 269.9551487 64.69656181 C269.71049055 63.5712562 269.46583241 62.44595058 269.21376038 61.2865448 C268.89627382 59.81789868 268.89627382 59.81789868 268.57237339 58.31958294 C268.08879443 55.99432949 268.08879443 55.99432949 267 54 C257.79181147 77.48395959 248.6086817 100.97724557 239.5 124.5 C231.4596961 145.26006674 223.37812508 166.00352979 215.23851013 186.72486877 C213.04710803 192.31009624 210.8755838 197.90260844 208.71920776 203.50144958 C207.334608 207.09297516 205.94159056 210.68120143 204.54724121 214.26895142 C203.89598224 215.95112822 203.24869613 217.63484908 202.60559082 219.32015991 C201.72764683 221.61985291 200.83622672 223.91386323 199.94140625 226.20703125 C199.68599564 226.88686066 199.43058502 227.56669006 199.16743469 228.26712036 C198.43188477 230.12817383 198.43188477 230.12817383 197 233 C193.34198818 234.21933727 192.33192737 233.66096997 188.76147461 232.37963867 C187.67981522 231.99649002 186.59815582 231.61334137 185.48371887 231.21858215 C184.30186508 230.78937973 183.12001129 230.36017731 181.90234375 229.91796875 C180.66687302 229.47736618 179.43140228 229.03676361 178.15849304 228.58280945 C174.78508449 227.37950654 171.41584726 226.1648966 168.04724884 224.94820404 C164.50764984 223.67194442 160.96431075 222.4061532 157.42138672 221.13916016 C150.26831976 218.5791126 143.11961026 216.00708547 135.972229 213.43121338 C131.26624841 211.73523268 126.5587073 210.04360163 121.85116577 208.35195923 C114.77565627 205.8092207 107.70107458 203.26393188 100.62890625 200.71191406 C82.28874195 194.09407675 63.9277792 187.53498882 45.56298828 180.98583984 C40.1405552 179.05205027 34.71902966 177.11573455 29.29803467 175.17791748 C27.01248843 174.36161773 24.72653057 173.54646994 22.44024658 172.73223877 C18.92927778 171.48165676 15.41960467 170.22749747 11.91015625 168.97265625 C10.82802353 168.58814804 9.74589081 168.20363983 8.63096619 167.80747986 C7.6429451 167.45343582 6.65492401 167.09939178 5.63696289 166.73461914 C4.7631044 166.42287247 3.88924591 166.11112579 2.98890686 165.78993225 C1 165 1 165 0 164 C0 109.88 0 55.76 0 0 Z " fill="#621433" transform="translate(0,0)"/>
<path d="M0 0 C1.8480536 2.7720804 2.41282356 4.13352235 3.08625793 7.27043152 C3.27738222 8.14531314 3.46850651 9.02019476 3.66542244 9.92158794 C3.86840384 10.88227593 4.07138523 11.84296392 4.28051758 12.83276367 C4.50107252 13.85127568 4.72162746 14.86978769 4.94886589 15.9191637 C5.68680853 19.33415762 6.41558014 22.75104519 7.14453125 26.16796875 C7.66719006 28.59436775 8.19046272 31.02063459 8.71430969 33.44677734 C9.83543509 38.64476002 10.95282054 43.84352412 12.06671143 49.0430603 C13.81261107 57.19247202 15.56618111 65.34022112 17.32177734 73.48754883 C17.54102049 74.50504654 17.54102049 74.50504654 17.76469278 75.54309976 C18.35791366 78.29614806 18.95115306 81.04919236 19.54449725 83.80221409 C20.4431587 87.9720118 21.34110855 92.14196202 22.23857474 96.31201714 C26.24728373 114.93635419 30.29913531 133.55074562 34.39453125 152.15625 C34.89126451 154.41481506 35.38797404 156.67338534 35.88465881 158.93196106 C37.97990427 168.45644368 40.0784592 177.98017061 42.18646908 187.50183678 C43.03693796 191.34831579 43.88325905 195.19569876 44.72847557 199.04333496 C45.11783313 200.81114598 45.50906885 202.57854455 45.90233803 204.3454895 C46.43459513 206.7373655 46.96049077 209.13055507 47.48486328 211.52416992 C47.6404411 212.21561191 47.79601892 212.90705389 47.95631123 213.61944866 C48.72016224 217.14001572 49.16787702 220.39632479 49 224 C39.26353117 221.21531024 29.74170806 217.84558345 20.1875 214.5 C19.2751358 214.18129944 18.36277161 213.86259888 17.42276001 213.53424072 C-4.63965639 205.82544243 -26.63295926 197.92315029 -48.62336731 190.01177979 C-56.07823966 187.32990264 -63.53675985 184.65850428 -71 182 C-68.91327961 175.52750847 -66.58509142 169.17819786 -64.11328125 162.84375 C-63.7395488 161.88098145 -63.36581635 160.91821289 -62.98075867 159.92626953 C-61.76009044 156.78336495 -60.53633406 153.64167302 -59.3125 150.5 C-58.45231111 148.28717267 -57.59228726 146.07428118 -56.73242188 143.86132812 C-50.85993587 128.75371509 -44.96778238 113.65375311 -39.06835938 98.55664062 C-34.20383699 86.10450845 -29.36956443 73.64079114 -24.54193115 61.17431641 C-18.79189168 46.32806446 -13.04165541 31.48182492 -7.22348022 16.66210938 C-6.66256109 15.23276725 -6.10250762 13.80308507 -5.54336548 12.37304688 C-4.78935138 10.44556904 -4.03197562 8.51945108 -3.2734375 6.59375 C-2.85497559 5.52833984 -2.43651367 4.46292969 -2.00537109 3.36523438 C-1 1 -1 1 0 0 Z " fill="#6FC5C2" transform="translate(267,53)"/>
</svg>
