<svg xmlns="http://www.w3.org/2000/svg" height="48" viewBox="0 96 960 960" width="48"><path fill="#603" d="M236 946v-43l61-40q-60.686 0-102.343-41.657Q153 779.686 153 719V333q0-86.112 78.565-126.056T479.504 167Q655 167 731 205.387 807 243.775 807 333v386q0 60.686-41.657 102.343Q723.686 863 663 863l61 40v43H236Zm-18-440h234V356H218v150Zm299 0h225V356H517v150ZM334 744q23 0 40-16.917 17-16.916 17-41.083 0-23-17-40t-40.5-17q-23.5 0-40.5 17t-17 40.5q0 23.5 16.917 40.5 16.916 17 41.083 17Zm293 0q23 0 40-16.917 17-16.916 17-41.083 0-23-17-40t-40.5-17q-23.5 0-40.5 17t-17 40.5q0 23.5 16.917 40.5 16.916 17 41.083 17Z"/></svg>